<?xml version="1.0" standalone="no"?>
<!DOCTYPE svg PUBLIC "-//W3C//DTD SVG 20010904//EN"
 "http://www.w3.org/TR/2001/REC-SVG-20010904/DTD/svg10.dtd">
<svg version="1.0" xmlns="http://www.w3.org/2000/svg"
 width="911.000000pt" height="911.000000pt" viewBox="0 0 911.000000 911.000000"
 preserveAspectRatio="xMidYMid meet">
<metadata>
Created by potrace 1.11, written by Peter Selinger 2001-2013
</metadata>
<g transform="translate(0.000000,911.000000) scale(0.100000,-0.100000)"
fill="#000000" stroke="none">
<path d="M4020 8679 c0 -6 -10 -19 -22 -29 -22 -18 -22 -19 -23 -363 0 -277 3
-343 13 -340 22 9 9 -20 -21 -45 -26 -23 -36 -25 -155 -26 -117 -1 -129 -3
-152 -23 -15 -15 -19 -23 -10 -23 9 0 10 -3 4 -9 -5 -6 -7 -88 -4 -206 3 -108
4 -198 2 -200 -2 -2 -3 -93 -3 -202 1 -151 -2 -202 -13 -215 -7 -10 -16 -15
-19 -11 -4 3 -7 1 -7 -5 0 -7 -7 -20 -16 -31 -16 -19 -17 -19 -39 7 l-23 27
-148 -2 c-82 -1 -159 -2 -171 -2 -13 -1 -24 -9 -28 -21 -4 -11 -10 -18 -15
-15 -14 9 -21 -28 -19 -102 0 -37 0 -72 -1 -78 -1 -5 -2 -13 -1 -17 2 -15 3
-134 1 -143 -1 -5 -1 -28 0 -50 1 -22 3 -55 4 -73 1 -19 -2 -36 -6 -39 -5 -2
-6 -8 -3 -12 4 -8 9 -127 5 -146 -1 -5 -1 -28 0 -50 1 -22 3 -55 4 -73 1 -19
-2 -36 -6 -39 -5 -2 -6 -8 -3 -12 4 -8 9 -129 5 -143 -2 -9 -2 -65 0 -75 2
-10 1 -208 -1 -220 -1 -4 -1 -12 0 -18 3 -12 2 -209 0 -222 -1 -4 0 -12 1 -18
1 -5 1 -26 0 -46 -1 -27 4 -40 24 -54 27 -21 26 -35 -4 -35 -10 0 -20 -5 -22
-10 -2 -6 -26 -11 -55 -11 -29 -1 -54 -7 -56 -13 -3 -8 -167 -11 -592 -10
l-588 0 -26 -25 c-25 -26 -25 -27 -26 -195 l-1 -170 33 -34 c38 -39 42 -53 13
-47 -12 2 -23 -2 -26 -9 -4 -10 -102 -12 -461 -12 -523 1 -497 5 -492 -81 1
-27 -1 -54 -5 -61 -4 -7 -3 -12 1 -12 15 0 -1 -140 -17 -150 -8 -5 -18 -6 -22
-4 -4 3 -8 0 -8 -6 0 -7 -6 -8 -18 -1 -13 7 -22 7 -30 -1 -6 -6 -16 -7 -23 -2
-17 10 -51 10 -67 0 -6 -4 -12 -3 -12 2 0 6 -14 7 -34 2 -19 -4 -37 -5 -40 -2
-9 9 -51 8 -63 -1 -7 -5 -18 -5 -25 -1 -17 11 -27 12 -60 3 -15 -4 -30 -4 -33
1 -3 5 -15 6 -29 0 -12 -4 -29 -5 -36 0 -7 4 -25 4 -41 0 -15 -5 -30 -6 -33
-3 -9 10 -50 10 -63 0 -7 -5 -18 -5 -25 -1 -16 10 -50 10 -66 0 -7 -4 -12 -2
-12 4 0 7 -6 8 -19 0 -14 -7 -22 -7 -26 1 -4 6 -16 -2 -29 -20 -13 -17 -26
-28 -29 -24 -4 3 -7 -87 -7 -200 0 -181 2 -207 16 -207 8 0 13 -4 10 -8 -3 -5
6 -15 19 -22 19 -10 113 -13 415 -13 l390 0 0 -23 c0 -13 -6 -24 -12 -24 -10
0 -13 -45 -12 -194 l1 -194 27 -28 26 -29 857 0 857 0 30 27 c20 18 34 24 40
18 17 -17 15 -39 -5 -45 -11 -4 -17 -11 -13 -16 3 -6 6 -82 6 -170 -1 -155 0
-160 23 -183 13 -13 22 -26 19 -28 -2 -3 206 -5 463 -5 l468 0 2 -384 c1 -211
2 -394 3 -407 0 -13 4 -21 9 -18 5 4 11 0 13 -6 4 -10 44 -13 160 -13 179 -1
183 -2 183 -80 0 -27 5 -53 10 -57 7 -5 7 -10 0 -15 -5 -5 -10 -21 -10 -38 0
-16 5 -33 10 -37 7 -5 7 -8 0 -8 -6 0 -10 -33 -10 -80 0 -44 4 -80 9 -80 5 0
4 -6 -1 -12 -7 -11 -8 -45 -2 -133 0 -5 -2 -19 -4 -30 -2 -11 0 -30 4 -42 5
-13 5 -23 1 -23 -12 0 -9 -64 3 -72 7 -5 7 -8 0 -8 -12 0 -13 -99 -2 -117 5
-7 4 -13 -1 -13 -17 0 -6 -37 21 -66 l27 -28 152 -1 c84 0 160 -5 168 -9 8 -5
12 -6 9 -2 -8 8 41 60 49 52 3 -3 5 -33 5 -66 0 -33 4 -60 9 -60 4 0 8 -7 8
-16 0 -8 4 -12 10 -9 13 8 12 34 14 -348 l1 -339 23 -18 c13 -11 22 -23 20
-27 -2 -4 77 -9 175 -11 98 -1 176 1 173 6 -2 4 6 16 20 26 l24 19 0 333 c0
319 1 334 19 334 26 0 72 58 67 87 -3 12 0 25 5 29 6 4 6 10 -1 19 -8 9 -7 14
4 18 8 3 16 1 19 -6 3 -9 51 -12 174 -12 94 0 169 3 167 6 -2 4 8 15 21 25
l25 19 0 441 c0 242 3 443 6 447 8 7 34 -17 34 -32 0 -11 156 -20 173 -9 6 3
21 2 33 -2 13 -5 26 -6 28 -1 3 5 18 6 32 3 19 -3 25 -1 20 7 -4 6 -1 11 7 11
10 0 14 9 13 30 -1 16 2 30 7 30 6 0 6 5 0 13 -11 15 -11 87 0 104 5 7 5 13 0
13 -4 0 -8 25 -8 55 0 30 4 55 9 55 5 0 4 6 -1 13 -11 15 -11 87 0 104 5 7 5
13 0 13 -4 0 -8 25 -8 55 0 30 4 55 9 55 5 0 4 6 -1 13 -11 15 -11 87 0 105 5
6 5 12 0 12 -4 0 -8 25 -8 55 0 30 4 55 9 55 5 0 4 6 -1 13 -11 15 -11 87 0
105 5 6 4 12 0 12 -7 0 -10 128 -3 155 1 6 1 12 0 15 -1 3 -3 36 -4 74 -1 49
2 70 12 73 7 3 12 15 11 27 -4 40 10 55 42 46 17 -5 31 -5 34 1 4 5 14 5 26
-1 10 -6 19 -7 19 -3 0 4 43 6 96 3 53 -3 98 -2 101 3 2 4 13 2 24 -3 11 -6
19 -7 19 -1 0 5 14 6 35 1 20 -4 38 -4 41 1 3 5 13 5 25 -1 11 -6 19 -7 19 -1
0 5 14 6 35 1 20 -4 38 -4 41 1 3 5 13 5 25 -1 11 -6 19 -7 19 -1 0 5 14 6 35
1 20 -4 38 -4 41 1 3 5 13 5 25 -1 10 -6 19 -7 19 -2 0 4 25 5 56 2 30 -3 57
-3 60 2 3 4 14 3 25 -2 11 -6 19 -7 19 -1 0 5 9 7 21 4 12 -4 27 2 37 13 15
16 17 41 17 184 0 133 -4 170 -16 188 -9 12 -19 19 -22 15 -4 -3 -6 5 -5 19
l2 25 641 1 c352 0 647 1 655 1 8 1 28 13 43 27 25 23 28 32 24 69 -2 24 0 50
5 59 6 10 5 16 -1 16 -5 0 -6 11 -2 27 4 16 4 43 0 62 -4 20 -3 43 2 53 5 10
6 18 2 18 -4 0 -8 20 -8 44 0 25 2 43 5 41 4 -2 4 9 2 25 l-4 30 64 -2 c35 -1
69 2 76 6 7 4 12 4 12 -1 0 -9 760 -9 784 0 9 4 16 3 16 -1 0 -4 16 -7 35 -7
21 0 35 5 35 13 0 6 7 12 15 12 13 0 15 26 15 173 0 172 0 174 -25 197 -14 13
-25 19 -25 12 0 -7 -10 -8 -32 -1 -20 5 -34 5 -38 -1 -3 -5 -11 -5 -19 0 -8 4
-24 4 -37 0 -14 -6 -26 -5 -29 0 -3 6 -15 6 -30 0 -14 -5 -25 -6 -25 -2 0 4
-58 7 -130 7 -71 0 -130 -4 -130 -8 0 -4 -8 -4 -17 2 -10 5 -26 5 -39 1 -12
-5 -24 -6 -28 -3 -9 10 -76 10 -76 1 0 -5 -7 -5 -17 1 -10 5 -26 5 -39 1 -12
-5 -24 -6 -27 -4 -9 9 -157 10 -157 1 0 -4 -8 -4 -17 2 -10 5 -26 5 -40 0 -13
-5 -25 -4 -28 2 -4 5 -10 7 -15 4 -21 -13 -35 7 -33 47 1 23 4 47 7 55 3 7 2
13 -2 13 -9 0 -8 113 2 128 4 7 3 12 -3 12 -5 0 -6 11 -2 28 4 15 4 42 0 61
-4 18 -5 40 -2 47 3 8 1 14 -4 14 -5 0 -19 9 -32 21 -17 16 -32 20 -67 17 -24
-2 -44 1 -44 5 0 5 -5 5 -11 2 -5 -4 -250 -7 -544 -7 l-533 0 -12 -24 c-10
-18 -17 -21 -30 -14 -22 12 -37 45 -17 37 11 -4 14 32 14 196 l0 202 -28 26
c-28 24 -33 25 -144 24 -73 0 -115 3 -115 10 0 6 -3 7 -8 0 -9 -12 -72 -15
-72 -3 0 5 -6 6 -12 1 -18 -11 -49 -11 -70 -1 -10 5 -18 5 -18 1 0 -10 -291
-10 -308 1 -6 4 -12 3 -12 -2 0 -4 -36 -8 -81 -7 -52 2 -82 -2 -85 -9 -3 -8
-59 -11 -187 -10 -221 1 -220 1 -211 15 3 6 6 278 6 604 0 505 -2 596 -14 614
-8 11 -18 18 -21 14 -4 -3 -7 1 -7 10 0 14 -23 17 -195 19 -151 2 -195 0 -195
-9 0 -20 -17 -15 -43 11 l-25 25 0 471 c0 389 -2 474 -13 481 -8 5 -11 9 -7 9
3 0 -3 11 -15 24 -15 17 -25 21 -33 15 -8 -7 -14 -6 -19 1 -3 6 -12 7 -18 3
-16 -10 -38 -10 -59 0 -11 4 -18 4 -18 -2 0 -7 -8 -7 -22 -2 -13 5 -33 5 -45
0 -14 -5 -23 -5 -23 2 0 6 -7 6 -19 -1 -14 -7 -22 -7 -26 0 -5 8 -11 8 -20 0
-10 -8 -15 -8 -20 0 -5 8 -11 8 -19 1 -9 -7 -16 -7 -24 1 -8 8 -19 3 -42 -22
-16 -17 -31 -28 -31 -24 -1 5 -2 162 -3 348 -1 259 -4 340 -14 344 -7 2 -10 8
-6 13 3 5 -2 9 -10 9 -9 0 -16 7 -16 15 0 13 -28 15 -195 15 -134 0 -195 -3
-195 -11z"/>
</g>
</svg>
