<?xml version="1.0" standalone="no"?>
<!DOCTYPE svg PUBLIC "-//W3C//DTD SVG 1.1//EN" "http://www.w3.org/Graphics/SVG/1.1/DTD/svg11.dtd" >
<svg xmlns="http://www.w3.org/2000/svg" xmlns:xlink="http://www.w3.org/1999/xlink" version="1.1">
<metadata></metadata>
<defs>
<font id="wingdings_pixelatedregular" horiz-adv-x="2048" >
<font-face units-per-em="2048" ascent="2048" descent="0" />
<missing-glyph horiz-adv-x="1260" />
<glyph horiz-adv-x="0" />
<glyph horiz-adv-x="682" />
<glyph unicode=" "  horiz-adv-x="1260" />
<glyph unicode="&#x09;" horiz-adv-x="1260" />
<glyph unicode="&#xa0;" horiz-adv-x="1260" />
<glyph unicode="!" horiz-adv-x="2520" d="M0 0v158h158v-158h-158zM158 158v314h157v-314h-157zM315 0v158h157v-158h-157zM315 472v158h157v158h158v157h158v-157h157v-158h-315v-158h-315zM472 158v157h158v-157h-158zM630 315v157h315v-157h-315zM788 945v157h157v-157h-157zM945 472v158h157v-158h-157z M945 788v157h157v-157h-157zM945 1102v158h315v158h315v-158h157v158h-157v314h315v-314h316v-158h-316v-158h-158v-157h-157v157h-157v-157h157v-157h-315v157h-158v157h-157zM1102 630v158h158v-158h-158zM1890 1732v158h316v-158h-316zM2206 1418v314h157v-314h-157z" />
<glyph unicode="&#x22;" horiz-adv-x="2678" d="M0 0v472h158v-314h472v-158h-630zM0 1418v472h472v-158h-314v-314h-158zM158 472v158h314v158h316v314h472v158h158v158h314v157h316v157h472v-157h-314v-157h-158v-158h-316v-158h-157v-314h157v-158h316v-158h315v-157h157v-157h-472v157h-158v157h-315v158h-157v158 h-473v-473h-157v315h-158v-158h-472zM158 1260v158h157v-158h-157zM315 1102v158h157v472h158v-472h158v-158h-473zM630 158v157h158v-157h-158z" />
<glyph unicode="#" horiz-adv-x="3150" d="M0 315v315h315v-158h-157v-157h-158zM158 158v157h472v157h158v158h-473v158h630v157h157v315h-314v158h-158v472h472v-158h-314v-157h157v-157h157v314h158v-787h1260v157h158v-157h315v-157h-1103v-158h-315v-158h157v-314h158v-158h-315v315h-157v315h-473v-315h-157 v-157h-630z" />
<glyph unicode="$" horiz-adv-x="3308" d="M0 315v473h158v-158h630v158h472v-158h788v-158h-158v-314h-158v314h-472v-157h158v-157h314v-158h-472v158h-158v472h-157v-315h-157v157h-630v-157h-158zM158 158v157h157v-157h-157zM158 788v157h157v-157h-157zM315 0v158h315v157h158v-315h-473zM315 945v157h157 v-157h-157zM472 1102v158h316v-158h-316zM788 1260v158h314v-158h-314zM1102 945v315h158v-315h-158zM2048 630v158h158v-158h-158zM2206 788v314h157v-314h-157zM2363 1102v158h315v-158h-315zM2678 1260v158h315v-158h-315zM2993 945v315h157v-315h-157z" />
<glyph unicode="%" d="M0 158v314h158v-314h-158zM158 0v158h1574v-158h-1574zM158 472v316h157v-158h157v158h946v-158h-630v-315h-473v157h-157zM315 788v630h157v-630h-157zM472 1418v314h316v-157h-158v-157h-158zM788 1732v158h314v-158h-314zM1102 1575v157h316v-314h-158v157h-158z M1418 472v158h157v158h157v-316h-314zM1418 788v630h157v-630h-157zM1732 158v314h158v-314h-158z" />
<glyph unicode="&#x26;" horiz-adv-x="2835" d="M0 0v1732h315v158h157v-1418h158v-157h-158v-157h158v-158h-630zM472 1890v158h630v-158h-630zM630 158v157h472v-157h-472zM630 472v158h472v-158h-472zM1102 0v158h158v157h-158v157h158v1260h158v-1260h157v-157h-157v-157h157v-158h-473zM1102 1732v158h158v-158 h-158zM1418 1732v158h157v-158h-157zM1575 158v157h473v-157h-473zM1575 472v158h473v-158h-473zM1575 1890v158h631v-158h-631zM2048 0v158h158v157h-158v157h158v1418h157v-158h315v-1732h-630z" />
<glyph unicode="'" horiz-adv-x="945" d="M0 0v1260h158v472h157v-472h157v472h158v-472h158v-1260h-788zM158 158h472v630h-472v-630zM158 945h157v157h-157v-157zM315 1732v158h157v-158h-157zM472 945h158v157h-158v-157z" />
<glyph unicode="(" horiz-adv-x="1890" d="M0 945v630h158v157h314v158h788v-158h315v-157h157v-630h-472v-315h158v-630h-1103v630h157v315h-472zM472 1260h788v158h-158v157h-472v-157h-158v-158zM630 788h158v157h-158v-157zM945 788h157v157h-157v-157z" />
<glyph unicode=")" d="M0 630v630h158v-630h-158zM158 315v315h157v-315h-157zM158 1260v315h157v-315h-157zM315 158v157h315v-157h-315zM315 1575v157h315v-157h-315zM630 0v158h158v314h157v788h-315v315h472v-315h158v-788h-158v-314h158v-158h-630zM630 1732v158h630v-158h-630zM1260 158 v157h315v-157h-315zM1260 1575v157h315v-157h-315zM1575 315v315h157v-315h-157zM1575 1260v315h157v-315h-157zM1732 630v630h158v-630h-158z" />
<glyph unicode="*" horiz-adv-x="2520" d="M0 0v1890h2363v-1890h-2363zM158 315h157v-157h1733v157h158v1260h-158v157h-1733v-157h-157v-1260zM315 315v315h157v-315h-157zM315 1418v157h157v-157h-157zM472 630v158h158v-158h-158zM472 1260v158h158v-158h-158zM630 788v157h158v-157h-158zM630 1102v158h158 v-158h-158zM788 945v157h157v-157h-157zM945 788v157h157v-157h-157zM1102 630v158h158v-158h-158zM1260 788v157h158v157h157v-314h-315zM1575 630v158h157v-158h-157zM1575 1102v158h157v-158h-157zM1732 472v158h158v-158h-158zM1732 1260v158h158v-158h-158zM1890 315 v157h158v-157h-158zM1890 1418v157h158v-157h-158z" />
<glyph unicode="+" horiz-adv-x="2363" d="M0 0v1890h2206v-1890h-2206zM158 158h1890v1574h-1890v-1574zM630 1102v158h630v-158h-630zM788 788v157h630v-157h-630zM945 472v158h630v-158h-630zM1575 1260v315h315v-315h-315z" />
<glyph unicode="," horiz-adv-x="2678" d="M0 0v1260h158v-1102h944v944h-157v158h315v-472h158v157h630v157h315v473h157v-1103h-157v-157h-315v157h-158v316h-315v-158h-315v-472h315v-158h-1575zM158 1260v158h314v-158h-314zM315 788v157h473v-157h-473zM472 1418v157h473v-315h-157v158h-316zM945 1575v157 h630v-157h-630zM1575 158v157h473v-157h-473zM1575 1732v158h631v-158h-631zM2206 1575v157h157v-157h-157z" />
<glyph unicode="-" horiz-adv-x="2678" d="M0 0v1260h158v-1102h944v944h-157v158h157v158h-157v-158h-157v158h-158v157h472v315h158v158h472v-158h474v-158h-474v-314h-472v-1260h315v-158h-1575zM158 1260v158h472v-158h-472zM315 788v157h473v-157h-473zM1575 158v157h473v-157h-473zM2048 315v157h315v-157 h-315zM2206 1575v157h157v-157h-157zM2363 472v1103h157v-1103h-157z" />
<glyph unicode="." horiz-adv-x="3308" d="M0 630v315h158v-315h-158zM158 472v158h472v-158h-158v-157h-157v157h-157zM158 945v157h314v-157h-314zM472 158v157h158v-157h-158zM472 788v157h158v315h158v-472h-316zM630 0v158h630v157h315v473h-157v157h157v157h-315v158h158v158h-158v157h630v315h158v158h472 v-158h316v-158h-316v-157h-314v-945h-316v788h-315v-158h157v-1102h316v-158h-1418zM788 630v158h157v157h157v-315h158v-315h-158v157h-157v158h-157zM788 1260v158h472v-158h-472zM1102 945v157h158v-157h-158zM1260 630v158h158v-158h-158zM2048 158v157h788v-157h-788z M2836 315v157h157v1103h157v-1260h-314zM2836 1575v157h157v-157h-157z" />
<glyph unicode="/" horiz-adv-x="3308" d="M0 472v473h472v-157h-314v-316h-158zM158 315v157h157v-157h-157zM315 158v157h315v-157h630v157h158v-157h157v944h-157v158h314v-1102h316v-158h-1576v158h-157zM472 472v316h158v472h158v-630h-158v-158h-158zM788 472v158h314v-158h-314zM788 1260v158h472v157h472 v-157h-314v-158h-630zM1102 315v157h158v-157h-158zM1732 1575v157h474v-157h-474zM1890 630v158h473v157h630v630h157v-1260h-314v157h-316v158h-630zM2048 158v157h788v-157h-788zM2206 1732v158h630v-158h-630zM2836 1575v157h157v-157h-157z" />
<glyph unicode="0" horiz-adv-x="2520" d="M0 0v1575h315v315h945v-315h1103v-1575h-2363zM158 158h2048v1260h-2048v-1260zM472 1575h630v157h-630v-157z" />
<glyph unicode="1" horiz-adv-x="3150" d="M0 0v1575h315v315h945v-315h1103v-157h630v-158h-157v-472h-158v472h-1890v-158h-158v316h472v314h-630v-314h-314v-946h157v-157h-157v-157h2205v-158h-2363zM315 472v316h157v-316h-157zM472 788v314h158v-314h-158zM2363 158v314h157v-314h-157zM2520 472v316h158 v-316h-158z" />
<glyph unicode="2" horiz-adv-x="1575" d="M0 0v1890h1102v-158h158v-157h158v-1575h-1418zM158 158h1102v1102h-472v472h-630v-1574zM315 315v157h787v-157h-787zM315 630v472h787v-472h-787zM315 1260v315h315v-315h-315zM945 1418h157v157h-157v-157z" />
<glyph unicode="3" horiz-adv-x="1575" d="M0 0v1890h1418v-1890h-1418zM158 158h1102v1574h-1102v-1574zM315 315v157h787v-157h-787zM315 630v472h787v-472h-787zM315 1260v315h787v-315h-787z" />
<glyph unicode="4" horiz-adv-x="2205" d="M0 0v1890h315v158h315v315h1418v-1891h-316v-157h-314v-315h-1418zM158 158h1102v157h-945v157h945v158h-945v315h945v157h-945v473h945v157h-1102v-1574zM788 2048h944v-1418h158v1576h-1102v-158zM1418 472h157v1418h-157v-1418z" />
<glyph unicode="5" horiz-adv-x="1260" d="M0 0v2048h1102v-2048h-1102zM158 158h787v787h-315v-315h-315v315h-157v-787zM158 1102h787v788h-315v-315h-315v315h-157v-788zM472 315v157h158v-157h-158z" />
<glyph unicode="6" horiz-adv-x="1260" d="M0 0v630h158v158h314v-158h-157v-158h-157v-157h787v157h-157v158h-158v158h315v-158h157v-472h-157v-158h-945zM0 1260v472h158v-157h787v157h157v-472h-157v158h-787v-158h-158zM158 1102v158h787v-158h-315v-314h-158v314h-314zM158 1732v158h787v-158h-787z" />
<glyph unicode="7" horiz-adv-x="2520" d="M0 0v1260h315v158h157v-158h1891v-1260h-2363zM158 158h2048v944h-2048v-944zM315 472v158h157v-158h-157zM315 788v157h157v-157h-157zM472 630v158h158v-158h-158zM472 1418v157h946v-157h-946zM630 315v315h158v-158h157v158h157v-158h158v158h158v-158h157v158h157 v-315h-1102zM630 788v157h158v-157h-158zM788 630v158h157v-158h-157zM945 788v157h157v-157h-157zM1102 630v158h158v-158h-158zM1260 788v157h158v-157h-158zM1418 630v158h157v-158h-157zM1418 1575v315h157v-315h-157zM1575 788v157h157v-157h-157zM1732 630v158h158 v-158h-158zM1890 472v158h158v-158h-158zM1890 788v157h158v-157h-158z" />
<glyph unicode="8" horiz-adv-x="2205" d="M0 1102v158h158v-158h-158zM158 945v157h472v-157h-472zM630 1102v316h158v-316h-158zM788 1418v314h157v-314h-157zM945 1732v158h157v-158h-157zM1102 158v1417h473v315h157v-315h316v-1417h-158v-158h-630v158h-158zM1102 1890v158h473v-158h-473zM1260 315h158v-157 h314v157h158v787h-630v-787zM1260 1260h315v158h-315v-158zM1732 1260h158v158h-158v-158z" />
<glyph unicode="9" horiz-adv-x="2520" d="M0 1260v158h158v-158h-158zM158 1418v157h314v-157h-314zM472 472v946h158v-946h-158zM630 315v157h472v630h158v-157h158v157h630v-157h158v157h157v-1102h-1261v315h-472zM1260 158h946v472h-158v-158h-158v473h-158v-473h158v-157h-315v157h-157v158h-158v-472z M1260 1102v158h158v-158h-158zM1418 1260v158h630v-158h-630zM2048 1102v158h158v-158h-158z" />
<glyph unicode=":" horiz-adv-x="2205" d="M0 0v315h158v-157h157v157h157v-157h158v157h158v-157h157v157h157v-157h158v157h158v-157h157v157h157v-157h158v314h158v-472h-2048zM158 315v157h157v-157h-157zM315 472v1418h1575v-1418h-315v-157h-157v157h-158v-157h-158v157h-157v-157h-157v157h-158v-157h-158 v157h-157zM630 945h945v630h-945v-630z" />
<glyph unicode=";" d="M0 472v788h1890v-788h-1890zM158 630h157v472h-157v-472zM472 630h1260v472h-157v-314h-1103v-158z" />
<glyph unicode="&#x3c;" d="M0 158v1732h1890v-1890h-1732v158h314v472h946v-472h314v1574h-157v-944h-1260v944h-157v-1574h-158zM472 945h946v787h-946v-787zM630 158h315v314h-315v-314z" />
<glyph unicode="=" d="M0 0v1890h1890v-315h-158v-315h158v-1260h-1890zM158 1260h1260v472h-1260v-472zM472 788h630v314h-630v-314zM630 158h315v472h-315v-472z" />
<glyph unicode="&#x3e;" horiz-adv-x="1890" d="M0 472v946h158v157h157v-315h-157v-630h157v-315h-157v157h-158zM315 158v157h315v-157h472v157h316v-157h-158v-158h-788v158h-157zM315 630v158h473v-158h-473zM315 1575v157h157v158h788v-158h158v-157h-316v157h-472v-157h-315zM788 788v314h314v-157h158v-157h158 v-158h-316v158h-314zM788 1260v315h157v-315h-157zM1418 315v315h157v630h157v-788h-157v-157h-157zM1418 1260v315h157v-315h-157z" />
<glyph unicode="?" horiz-adv-x="2205" d="M0 0v158h158v-158h-158zM158 158v157h314v157h158v316h472v-316h-157v-314h630v-158h-1103v158h-314zM315 472v316h157v-316h-157zM472 788v314h788v-157h158v-315h-158v158h-158v157h-472v-157h-158zM1418 472v158h157v-158h-157zM1418 945v157h157v-157h-157zM1575 158 v314h157v-314h-157zM1575 1102v158h315v-158h-315zM1890 1260v158h158v-158h-158z" />
<glyph unicode="@" horiz-adv-x="2205" d="M0 1260v158h158v-158h-158zM158 1102v158h314v-158h-314zM315 158v314h157v-314h-157zM472 0v158h630v314h-157v316h473v157h157v-315h-157v-158h157v-157h315v-157h-315v-158h-1103zM472 472v316h158v-316h-158zM472 945v157h158v-157h-158zM630 788v157h158v157h630 v-157h-473v-157h-315zM1575 472v158h157v-158h-157zM1890 0v158h158v-158h-158z" />
<glyph unicode="A" horiz-adv-x="1260" d="M0 315v945h158v-158h157v158h-157v788h157v-158h157v-472h158v-316h158v316h157v-946h-157v473h-158v-315h-315v158h157v157h-157v-157h-157v-158h157v-158h-157v-157h-158zM158 158v157h157v-157h-157zM315 0v158h315v-158h-315zM630 158v314h158v-314h-158zM630 1418 v314h158v-314h-158zM788 1732v158h314v-472h-157v314h-157z" />
<glyph unicode="B" horiz-adv-x="1890" d="M0 1575v315h315v-158h-157v-157h-158zM158 472v630h157v-157h157v-157h158v-158h-315v-158h-157zM158 1418v157h157v157h157v316h316v-316h-158v-157h-158v-157h-314zM315 315v157h315v158h158v-158h157v-157h-630zM315 1102v158h157v-158h-157zM472 945v157h158v158h158 v-315h-316zM472 1260v158h158v-158h-158zM630 1418v157h158v157h157v158h157v-788h-157v158h-157v158h-158zM788 630v315h157v-315h-157zM945 158v157h157v-157h-157zM1102 0v158h473v-158h-473zM1102 788v314h158v-314h-158zM1260 630v158h158v-158h-158zM1418 472v158h157 v-158h-157zM1575 158v314h157v-314h-157z" />
<glyph unicode="C" horiz-adv-x="1417" d="M0 315v630h158v-315h157v158h157v-158h158v-472h158v-158h-473v158h-157v157h-158zM158 945v157h157v630h157v-314h158v-158h-158v-315h-314zM630 945v315h158v-315h-158zM788 158v157h314v-157h-314zM788 788v157h314v-157h-314zM1102 315v473h158v-473h-158z" />
<glyph unicode="D" horiz-adv-x="1417" d="M0 945v473h158v-473h-158zM158 788v157h314v-315h-157v158h-157zM158 1418v157h314v-157h-314zM472 315v315h316v-158h-158v-157h-158zM472 1260v158h158v-158h-158zM472 1575v157h316v-157h157v-157h157v-158h158v-472h-158v314h-157v-157h-157v157h-158v158h158v158 h-158v157h-158zM630 158v157h158v157h157v-472h-157v158h-158zM788 630v158h314v-158h-314z" />
<glyph unicode="E" horiz-adv-x="2205" d="M0 630v315h1418v-157h-630v-158h-788zM788 158v472h630v-472h157v-158h-630v158h-157zM1418 630v158h472v-158h-472zM1575 158v157h315v-157h-315zM1890 315v315h158v-315h-158z" />
<glyph unicode="F" d="M0 315v315h158v-315h-158zM158 158v157h314v-157h-314zM158 630v158h314v-158h-314zM472 0v158h158v157h158v157h-158v158h315v-158h157v-314h-157v-158h-473zM472 315v157h158v-157h-158zM472 788v157h1418v-315h-630v158h-158v-158h-157v158h-473zM1102 472v158h158 v-158h-158z" />
<glyph unicode="G" horiz-adv-x="1102" d="M0 472v473h158v157h314v-157h158v-315h-158v158h-157v-158h-157v-158h-158zM158 158v314h157v-314h-157zM315 0v158h315v-158h-315zM315 472v158h157v-158h-157zM472 1102v158h158v-158h-158zM630 158v472h158v-472h-158zM630 945v157h158v158h-158v630h315v-1260h-157 v315h-158z" />
<glyph unicode="H" horiz-adv-x="1102" d="M0 0v1575h158v-630h157v-945h-315zM158 1575v315h157v-315h-157zM315 945v473h473v157h157v-630h-157v-157h-316v157h-157zM315 1890v158h315v-158h-315zM630 1575v315h158v-315h-158z" />
<glyph unicode="I" d="M0 1102v473h158v-157h157v472h473v-788h-158v316h-158v-316h-157v-157h-157v157h-158zM315 315v630h157v-630h-157zM472 158v157h158v-157h-158zM472 945v157h158v-157h-158zM630 0v158h315v-158h-315zM788 1890v158h314v-316h158v158h158v-472h-158v157h-158v-157h158 v-473h158v-157h-158v-158h-158v472h-157v788h-157zM945 158v157h157v-157h-157zM1102 315v157h158v-157h-158zM1260 472v158h158v-158h-158zM1418 630v158h314v-158h-314zM1418 945v157h314v-157h-314zM1732 788v157h158v-157h-158z" />
<glyph unicode="J" d="M0 630v630h158v-630h-158zM158 315v315h157v-315h-157zM158 1260v315h157v-315h-157zM315 158v157h315v-157h-315zM315 630v315h157v-315h-157zM315 1575v157h315v-157h-315zM472 472v158h158v-158h-158zM472 1102v316h316v-316h-316zM630 0v158h630v-158h-630zM630 315 v157h630v-157h-630zM630 1732v158h630v-158h-630zM1102 1102v316h316v-316h-316zM1260 158v157h315v-157h-315zM1260 472v158h158v-158h-158zM1260 1575v157h315v-157h-315zM1418 630v315h157v-315h-157zM1575 315v315h157v-315h-157zM1575 1260v315h157v-315h-157z M1732 630v630h158v-630h-158z" />
<glyph unicode="K" horiz-adv-x="2205" d="M0 630v630h158v-630h-158zM158 315v315h157v-158h157v-157h158v-157h-315v157h-157zM158 1260v315h157v157h315v-157h-158v-157h-157v-158h-157zM472 630v158h1103v-158h-1103zM630 0v158h788v-158h-788zM630 1102v316h315v-316h-315zM630 1732v158h788v-158h-788z M1102 1102v316h316v-316h-316zM1418 158v157h157v157h157v158h158v-315h-158v-157h-314zM1418 1575v157h314v-157h158v-315h-158v158h-157v157h-157zM1890 630v630h158v-630h-158z" />
<glyph unicode="L" d="M0 630v630h158v-630h-158zM158 315v315h314v-158h-157v-157h-157zM158 1260v315h157v-315h-157zM315 158v157h315v-157h-315zM315 1575v157h315v-157h-315zM472 630v158h158v-158h-158zM472 1102v316h316v-316h-316zM630 0v158h630v-158h-630zM630 788v157h630v-157h-630 zM630 1732v158h630v-158h-630zM1102 1102v316h316v-316h-316zM1260 158v157h315v-157h-315zM1260 630v158h158v-158h-158zM1260 1575v157h315v-157h-315zM1418 472v158h314v-315h-157v157h-157zM1575 1260v315h157v-315h-157zM1732 630v630h158v-630h-158z" />
<glyph unicode="M" horiz-adv-x="2520" d="M0 315v630h158v157h314v316h158v157h158v-157h157v-316h315v-157h158v-630h-158v-157h-158v-158h-787v158h-157v157h-158zM788 1575v157h314v-157h-314zM1102 1418v157h158v-157h-158zM1260 1260v158h158v-158h-158zM1418 1102v158h788v-158h-316v-157h-158v-157h-157 v314h-157zM1418 1575v315h157v-315h-157zM1575 1418v157h157v315h158v-472h-315zM1890 788v157h158v-157h-158zM2048 1575v157h158v-157h-158zM2206 945v157h157v-157h-157zM2206 1260v158h157v-158h-157zM2206 1732v158h157v-158h-157z" />
<glyph unicode="N" horiz-adv-x="1417" d="M0 472v316h315v-158h315v-158h-630zM158 0v158h314v157h158v-315h-472zM315 1260v315h157v157h473v-157h157v-315h-157v158h-157v-158h-158v158h-158v-158h-157zM472 1102v158h158v-158h-158zM630 315v157h158v-157h-158zM630 788v314h158v-314h-158zM788 158v157h314 v-157h158v-158h-315v158h-157zM788 472v158h314v158h158v-316h-472zM788 1102v158h157v-158h-157z" />
<glyph unicode="O" horiz-adv-x="1890" d="M0 0v2206h158v-316h314v-158h-314v-787h157v-157h-157v-788h-158zM315 945v157h473v-157h-473zM472 1890v158h473v-158h-473zM630 472v158h158v-158h-158zM788 315v157h787v-157h-787zM788 630v315h157v945h157v-472h473v157h157v-1103h-157v788h-473v-472h-157v-158 h-157z" />
<glyph unicode="P" horiz-adv-x="2520" d="M0 472v316h158v-316h-158zM0 945v945h158v-158h157v-157h-157v-630h-158zM158 0v472h157v-472h-157zM158 788v157h157v-157h-157zM315 945v157h473v158h157v-158h315v-157h-315v-157h-157v-158h944v-158h-1102v473h-315zM315 1732v158h630v-158h157v-472h-157v315h-157 v157h-473zM1260 788v157h946v-157h-316v-158h-158v158h-472zM2206 945v157h157v-157h-157z" />
<glyph unicode="Q" d="M0 630v158h158v-158h-158zM0 945v157h945v316h-157v314h-158v158h315v-315h157v-157h158v-158h158v-158h472v-314h-630v-316h-158v-157h-157v-315h-315v158h158v314h157v316h-473v157h-157v-157h-157v157h-158z" />
<glyph unicode="R" horiz-adv-x="1890" d="M0 945v157h315v-472h157v-158h158v-157h472v157h158v316h158v-158h157v-315h-315v-315h-158v158h-472v-158h-158v315h-314v630h-158zM315 1102v473h157v-157h158v-158h-158v-158h-157zM630 1418v157h158v157h157v-157h157v-157h-472zM1102 1260v158h158v157h158v-473 h-158v158h-158zM1418 788v314h314v-157h-157v-157h-157z" />
<glyph unicode="S" horiz-adv-x="1417" d="M0 315v630h158v157h157v158h157v472h158v-157h158v-315h157v-158h157v-157h158v-630h-158v-157h-157v-158h-630v158h-157v157h-158z" />
<glyph unicode="T" horiz-adv-x="1890" d="M0 472v158h158v158h472v-158h-158v-315h-157v157h-315zM0 788v314h158v-314h-158zM0 1260v158h315v157h157v-315h158v-158h-472v158h-158zM472 158v157h316v473h-158v314h158v316h-158v157h158v315h157v-315h157v-157h-157v-316h157v-314h-157v-473h315v-157h-315v-158 h-157v158h-316zM472 1575v157h158v-157h-158zM1102 630v158h473v-158h157v-158h-314v-157h-158v315h-158zM1102 1102v158h158v315h158v-157h314v-158h-157v-158h-473zM1102 1575v157h158v-157h-158zM1575 788v314h157v-314h-157z" />
<glyph unicode="U" horiz-adv-x="1575" d="M0 788v472h472v472h473v-472h473v-472h-473v-788h-473v788h-472zM158 945h472v-787h158v787h472v157h-472v473h-158v-473h-472v-157z" />
<glyph unicode="V" horiz-adv-x="1732" d="M0 945v473h472v472h630v-472h473v-630h-473v-788h-630v945h-472zM158 1102h472v-787h315v787h473v158h-473v472h-315v-472h-472v-158z" />
<glyph unicode="W" horiz-adv-x="1732" d="M0 945v315h158v158h157v157h157v157h158v158h315v-158h157v-157h158v-157h158v-158h157v-315h-157v-157h-158v-158h-315v-630h-315v630h-315v158h-157v157h-158zM472 788h158v157h-158v-157zM472 1260h158v158h-158v-158zM945 788h157v157h-157v-157zM945 1260h157v158 h-157v-158z" />
<glyph unicode="X" horiz-adv-x="1417" d="M0 315v630h158v-157h314v314h-157v158h630v-158h-157v-314h-158v-158h158v158h314v157h158v-630h-158v157h-314v-314h157v-158h-630v158h157v314h-314v-157h-158z" />
<glyph unicode="Y" horiz-adv-x="1732" d="M0 315v157h158v630h-158v158h472v158h158v-158h158v158h-158v157h315v-315h630v-158h-157v-630h157v-157h-630v-315h-315v158h158v157h-158v-157h-158v157h-472zM472 472h473v158h157v-158h158v158h-158v315h158v157h-158v-157h-157v157h-473v-630z" />
<glyph unicode="Z" horiz-adv-x="1890" d="M0 630v630h158v315h157v157h315v158h630v-158h-472v-157h-158v-157h-158v-158h-157v-630h157v-158h158v-157h158v-157h630v-158h-788v158h-315v157h-157v315h-158zM1260 630v158h158v-158h-158zM1260 945v157h158v158h157v-158h157v-472h-157v158h-157v157h-158z M1260 1575v157h158v-157h-158z" />
<glyph unicode="[" d="M0 630v788h158v-158h157v158h473v-316h-316v-314h316v314h157v-472h157v-158h473v158h157v-315h-157v-157h-315v-158h-630v158h-315v157h-157v315h-158zM158 1418v157h157v-157h-157zM315 1575v157h315v-157h-315zM630 1732v158h630v-158h-630zM1260 1575v157h315v-157 h157v-315h-157v158h-157v157h-158zM1418 788v314h157v-314h-157zM1732 630v630h158v-630h-158z" />
<glyph unicode="\" d="M0 472v473h158v-473h-158zM158 315v157h314v-157h473v473h-473v157h316v157h-473v316h473v-158h157v-315h157v157h158v-157h158v-315h314v472h-472v158h158v158h314v-158h158v-788h-158v-157h-472v473h-158v-630h-157v-158h-473v158h-157v157h-157zM630 1575v157h158 v-157h-158zM788 1418v157h314v157h158v-157h158v-157h-158v-158h-315v158h-157zM945 1732v158h157v-158h-157z" />
<glyph unicode="]" d="M0 788v314h158v158h157v158h-157v314h314v-157h158v157h158v158h314v-158h158v-157h158v157h314v-314h-157v-158h157v-158h158v-314h-158v-158h-157v-158h157v-314h-314v157h-158v-157h-158v-158h-314v158h-158v157h-158v-157h-314v314h157v158h-157v158h-158zM472 630 h158v-158h158v158h-158v158h-158v-158zM472 1102h158v158h158v158h-158v-158h-158v-158zM788 788h314v314h-314v-314zM1102 472h158v158h158v158h-158v-158h-158v-158zM1102 1260h158v-158h158v158h-158v158h-158v-158z" />
<glyph unicode="^" horiz-adv-x="2678" d="M0 1102v630h158v316h472v-158h158v-158h157v-157h157v-630h316v630h157v157h157v-314h-157v-630h-157v-1103h-316v945h-157v630h-157v315h-158v157h-315v-630h157v-157h-314v157h-158zM1732 1732v158h158v-158h-158zM1890 1890v158h473v-316h157v-630h-157v-157h-315v157 h158v788h-316z" />
<glyph unicode="_" horiz-adv-x="2363" d="M0 1890v158h315v-158h157v-158h158v-314h158v-158h630v158h157v314h157v158h158v158h316v-158h-158v-158h-158v-157h-158v-315h-157v-158h157v-314h-157v157h-157v157h-630v-157h-158v-157h-158v314h158v158h-158v315h-157v157h-157v158h-158zM315 158v630h157v-630h-157 zM472 0v158h158v-158h-158zM630 0h158v-158h-158v158zM788 -158h630v-157h-630v157zM1418 0h157v-158h-157v158zM1575 0v158h157v-158h-157zM1732 158v630h158v-630h-158z" />
<glyph unicode="`" horiz-adv-x="2520" d="M0 0v158h315v-158h-315zM158 2048v158h314v-158h1418v158h316v-158h-158v-158h-316v-1575h316v-157h-1733v157h315v1575h-315v158h-157zM945 315h473v1575h-473v-1575zM2048 0v158h315v-158h-315z" />
<glyph unicode="a" horiz-adv-x="2520" d="M0 315v157h315v-157h1417v157h316v158h158v315h-158v157h-316v-157h-157v-315h157v-158h-314v630h157v158h631v-158h157v-630h-157v-157h-158v-157h-473v-158h-945v158h-472v157h-158zM0 788v630h158v157h157v157h315v158h945v-158h473v-157h158v-157h-316v157h-1260 v-157h-315v-158h-157v-315h157v-157h315v157h158v315h-158v158h315v-630h-157v-158h-630v158h-158z" />
<glyph unicode="b" d="M0 158v630h315v-158h-157v-315h157v-157h315v157h158v315h-158v158h-315v157h315v157h-158v630h158v158h158v158h630v-158h157v-158h157v-787h-157v-315h-157v-472h-158v-473h472v-157h-630v157h-157v473h-157v-158h-630v158h-158zM788 945h157v-630h157v315h158v472h158 v630h-158v158h-315v-158h-157v-787zM1732 -158h158v-157h-158v157z" />
<glyph unicode="c" d="M0 1732v158h315v-158h157v158h316v-158h314v158h158v-158h158v-314h314v-316h158v-630h-158v-314h-157v-158h-157v-315h-158v157h-158v1733h-157v-1575h-315v1575h-158v-1575h-314v1732h-158zM945 -158h157v-157h-157v157zM1418 -315h157v-157h-157v157zM1418 315h157 v787h-157v-787z" />
<glyph unicode="d" d="M0 0v315h1890v-315h-1890zM0 472v316h472v157h-157v315h157v158h158v157h630v-157h158v-158h157v-315h-157v-157h472v-316h-788v316h158v314h-158v158h-314v-158h-158v-314h158v-316h-788z" />
<glyph unicode="e" horiz-adv-x="2363" d="M0 1732v158h315v-158h315v-314h-158v-1418h-314v1732h-158zM630 1732v158h315v-158h315v158h158v-158h157v-1890h315v158h158v-158h158v-157h-158v-157h-158v157h-472v157h-158v1733h-158v-1575h-314v1732h-158z" />
<glyph unicode="f" d="M0 0v158h158v-158h-158zM158 158v157h157v-157h-157zM158 945v157h314v-157h158v-157h158v-158h157v-158h157v-314h-157v157h-157v157h-316v316h-157v157h-157zM315 315v157h157v-157h-157zM788 788v157h157v-157h-157zM945 945v157h157v-157h-157zM945 1732v158h473 v-158h314v-314h158v-473h-158v315h-157v158h-157v157h-158v157h-315zM1102 1102v158h158v-158h-158zM1260 1260v158h158v-158h-158z" />
<glyph unicode="g" horiz-adv-x="2520" d="M0 2048v158h472v-316h158v-315h158v-630h-316v630h-157v473h-315zM788 0v158h314v157h158v315h158v158h-158v1102h158v-945h157v-315h157v-158h-314v-314h-158v-158h-472zM788 1575v315h157v-315h-157zM945 1890v316h315v-316h-315zM1575 945v157h157v-157h-157z M1732 315v157h316v158h158v315h-158v157h-316v158h474v-158h157v-630h-157v-157h-474z" />
<glyph unicode="h" horiz-adv-x="2363" d="M0 0v158h158v-158h-158zM0 945v157h158v-157h-158zM158 158v157h157v157h473v-157h314v-157h-472v157h-158v-157h-314zM158 1102v158h157v-158h-157zM315 1260v158h473v-158h157v158h315v157h158v-315h157v158h315v157h158v-315h-316v-158h-472v158h-158v-158h-472v158 h-315zM1102 315v157h158v158h158v-315h314v-157h-157v-158h-157v158h-158v157h-158zM1732 315v157h158v158h158v-315h-316zM2048 0v315h158v-315h-158zM2048 945v315h158v-315h-158z" />
<glyph unicode="i" horiz-adv-x="1732" d="M0 788v157h472v315h-157v158h-157v314h157v-157h157v-157h158v-158h315v158h157v157h158v157h158v-314h-158v-158h-158v-315h473v-157h-473v-316h158v-157h158v-315h-158v158h-158v157h-157v157h-315v-157h-158v-157h-157v-158h-157v315h157v157h157v316h-472z" />
<glyph unicode="j" horiz-adv-x="2678" d="M0 472v630h158v158h157v158h157v157h473v-157h-315v-158h-158v-158h-157v-157h473v-157h-473v-158h157v-158h630v-157h-944v157h-158zM788 945v157h157v-157h-157zM945 1102v316h157v-158h158v158h630v-158h473v-158h-473v-157h-158v-630h-157v-315h-157v630h157v158 h-157v157h157v157h-630zM1102 472v158h158v-158h-158zM1260 630v158h158v-158h-158zM2363 1260v472h157v-472h-157z" />
<glyph unicode="k" horiz-adv-x="3150" d="M0 315v630h158v157h157v158h157v630h316v-158h-158v-314h315v-158h-157v-315h157v-315h157v-158h316v-157h157v-157h315v-158h630v-158h-945v158h-315v158h-158v157h-157v157h-157v316h-158v314h-158v-157h-157v-473h157v-157h473v-157h-787v157h-158zM788 1890v158h472 v-158h158v-315h-158v-157h-315v157h157v315h-314zM945 945v157h157v158h158v158h1576v-158h-158v-158h-630v-157h-158v157h-630v-157h-315zM1418 472v158h157v-158h-157zM1575 630v158h157v-158h-157zM1732 788v157h158v-157h-158zM2520 0v158h158v630h315v-473h-157v-315 h-316zM2678 1732v158h158v-158h-158zM2836 1418v314h157v-314h-157z" />
<glyph unicode="l" horiz-adv-x="1575" d="M0 630v788h158v157h157v157h787v-157h158v-157h158v-788h-158v-158h-158v-157h-787v157h-157v158h-158z" />
<glyph unicode="m" d="M0 630v788h158v-788h-158zM158 315v315h157v-158h157v-157h-314zM158 1418v157h157v-157h-157zM315 1575v157h157v-157h-157zM472 158v157h788v157h158v158h157v788h-157v157h314v-315h158v-788h-158v-157h-157v-157h-157v-158h-630v158h-316zM472 1732v158h630v-158 h-630zM1102 1575v157h316v-157h-316z" />
<glyph unicode="n" horiz-adv-x="1575" d="M0 315v1417h1418v-1417h-1418z" />
<glyph unicode="o" d="M0 0v1890h1890v-1890h-1890zM158 315h1574v1260h-1574v-1260z" />
<glyph unicode="p" d="M0 0v1890h1890v-1890h-1890zM315 315h1260v1260h-1260v-1260z" />
<glyph unicode="q" d="M0 158v1732h1732v-158h158v-1732h-1732v158h-158zM158 315h1417v1417h-1417v-1417z" />
<glyph unicode="r" d="M0 0v1732h158v158h1732v-1732h-158v-158h-1732zM158 158h1417v1417h-1417v-1417z" />
<glyph unicode="s" horiz-adv-x="945" d="M0 945v157h158v316h157v157h157v-157h158v-316h158v-157h-158v-315h-158v-158h-157v158h-157v315h-158z" />
<glyph unicode="t" horiz-adv-x="1575" d="M0 945v157h158v316h157v157h157v315h158v158h158v-158h157v-315h157v-157h158v-316h158v-157h-158v-315h-158v-158h-157v-314h-157v-158h-158v158h-158v314h-157v158h-157v315h-158z" />
<glyph unicode="u" horiz-adv-x="2205" d="M0 945v157h158v158h157v158h157v157h158v157h158v158h157v158h157v-158h158v-158h158v-157h157v-157h157v-158h158v-158h158v-157h-158v-157h-158v-158h-157v-158h-157v-157h-158v-157h-158v-158h-157v158h-157v157h-158v157h-158v158h-157v158h-157v157h-158z" />
<glyph unicode="v" d="M0 788v314h158v158h314v-158h158v-314h-158v-158h-314v158h-158zM630 158v314h158v158h314v-158h158v-314h-158v-158h-314v158h-158zM630 1418v314h158v158h314v-158h158v-314h-158v-158h-314v158h-158zM1260 788v314h158v158h314v-158h158v-314h-158v-158h-314v158h-158 z" />
<glyph unicode="w" horiz-adv-x="1260" d="M0 945v157h158v158h157v158h157v157h158v-157h158v-158h157v-158h157v-157h-157v-157h-157v-158h-158v-158h-158v158h-157v158h-157v157h-158z" />
<glyph unicode="x" horiz-adv-x="2363" d="M0 0v1890h2206v-1890h-2206zM315 315h315v315h158v158h157v157h-157v157h-158v316h158v-158h157v-158h315v158h158v158h157v-316h-157v-157h-158v-157h158v-158h157v-158h-157v-157h472v1260h-1575v-1260zM788 315h472v315h-315v-158h-157v-157z" />
<glyph unicode="y" horiz-adv-x="2363" d="M0 0v1890h2206v-1890h-2206zM315 315h1575v1260h-1575v-1260zM472 630v158h158v157h158v157h157v158h315v-158h158v-157h157v-157h157v-158h-314v158h-158v157h-315v-157h-157v-158h-316z" />
<glyph unicode="z" horiz-adv-x="1890" d="M0 158v630h158v314h-158v630h158v158h472v-158h158v-472h157v472h157v158h473v-158h157v-630h-157v-314h157v-630h-157v-158h-473v158h-157v472h-157v-472h-158v-158h-472v158h-158zM315 315h157v315h-157v-315zM315 1260h157v315h-157v-315zM1260 315h158v315h-158v-315 zM1260 1260h158v315h-158v-315z" />
<glyph unicode="{" horiz-adv-x="2205" d="M0 788v314h158v-314h-158zM158 315v473h314v-158h-157v-158h157v-157h-314zM158 1102v473h472v-315h-158v158h-157v-316h-157zM472 158v157h158v-157h-158zM630 0v158h315v-158h-315zM630 788v314h315v-157h-157v-157h-158zM630 1575v157h788v-157h-788zM788 630v158h157 v-158h-157zM945 158v472h157v-472h-157zM945 788v157h157v157h316v-157h-158v-315h-158v158h-157zM945 1102v158h157v-158h-157zM1102 0v158h316v-158h-316zM1260 1260v158h158v157h157v-157h315v-316h158v-314h-158v157h-158v315h-472zM1418 158v157h157v-157h-157z M1575 315v157h157v158h-157v158h315v-473h-315z" />
<glyph unicode="|" horiz-adv-x="1890" d="M0 630v315h158v473h314v314h316v-157h157v157h315v-314h315v-473h157v-315h-157v-315h-157v-157h-158v-158h-315v315h-157v-315h-316v158h-157v157h-157v315h-158zM788 945h157v157h-157v-157z" />
<glyph unicode="}" horiz-adv-x="1260" d="M0 1102v788h158v158h314v-158h-157v-315h157v-473h-472zM630 1102v788h158v158h314v-158h-157v-315h157v-473h-472z" />
<glyph unicode="~" horiz-adv-x="1260" d="M0 1102v158h158v315h-158v473h472v-788h-157v-158h-315zM630 1102v158h158v315h-158v473h472v-788h-157v-158h-315z" />
<glyph unicode="&#xa2;" horiz-adv-x="157" />
<glyph unicode="&#xad;" horiz-adv-x="2678" d="M0 0v1260h158v-1102h944v944h-157v158h157v158h-157v-158h-157v158h-158v157h472v315h158v158h472v-158h474v-158h-474v-314h-472v-1260h315v-158h-1575zM158 1260v158h472v-158h-472zM315 788v157h473v-157h-473zM1575 158v157h473v-157h-473zM2048 315v157h315v-157 h-315zM2206 1575v157h157v-157h-157zM2363 472v1103h157v-1103h-157z" />
<glyph unicode="&#x2000;" horiz-adv-x="1181" />
<glyph unicode="&#x2001;" horiz-adv-x="2363" />
<glyph unicode="&#x2002;" horiz-adv-x="1181" />
<glyph unicode="&#x2003;" horiz-adv-x="2363" />
<glyph unicode="&#x2004;" horiz-adv-x="787" />
<glyph unicode="&#x2005;" horiz-adv-x="590" />
<glyph unicode="&#x2006;" horiz-adv-x="393" />
<glyph unicode="&#x2007;" horiz-adv-x="393" />
<glyph unicode="&#x2008;" horiz-adv-x="295" />
<glyph unicode="&#x2009;" horiz-adv-x="472" />
<glyph unicode="&#x200a;" horiz-adv-x="131" />
<glyph unicode="&#x2010;" horiz-adv-x="2678" d="M0 0v1260h158v-1102h944v944h-157v158h157v158h-157v-158h-157v158h-158v157h472v315h158v158h472v-158h474v-158h-474v-314h-472v-1260h315v-158h-1575zM158 1260v158h472v-158h-472zM315 788v157h473v-157h-473zM1575 158v157h473v-157h-473zM2048 315v157h315v-157 h-315zM2206 1575v157h157v-157h-157zM2363 472v1103h157v-1103h-157z" />
<glyph unicode="&#x2011;" horiz-adv-x="2678" d="M0 0v1260h158v-1102h944v944h-157v158h157v158h-157v-158h-157v158h-158v157h472v315h158v158h472v-158h474v-158h-474v-314h-472v-1260h315v-158h-1575zM158 1260v158h472v-158h-472zM315 788v157h473v-157h-473zM1575 158v157h473v-157h-473zM2048 315v157h315v-157 h-315zM2206 1575v157h157v-157h-157zM2363 472v1103h157v-1103h-157z" />
<glyph unicode="&#x2012;" horiz-adv-x="2678" d="M0 0v1260h158v-1102h944v944h-157v158h157v158h-157v-158h-157v158h-158v157h472v315h158v158h472v-158h474v-158h-474v-314h-472v-1260h315v-158h-1575zM158 1260v158h472v-158h-472zM315 788v157h473v-157h-473zM1575 158v157h473v-157h-473zM2048 315v157h315v-157 h-315zM2206 1575v157h157v-157h-157zM2363 472v1103h157v-1103h-157z" />
<glyph unicode="&#x2013;" horiz-adv-x="1182" d="M0 0v1260h64v-1102h384v944h-64v158h64v158h-64v-158h-64v158h-64v157h192v315h64v158h192v-158h192v-158h-192v-314h-192v-1260h128v-158h-640zM64 1260v158h192v-158h-192zM128 788v157h192v-157h-192zM640 158v157h192v-157h-192zM832 315v157h128v-157h-128z M896 1575v157h64v-157h-64zM960 472v1103h64v-1103h-64z" />
<glyph unicode="&#x2014;" horiz-adv-x="2206" d="M0 0v1260h128v-1102h768v944h-128v158h128v158h-128v-158h-128v158h-128v157h384v315h128v158h384v-158h385v-158h-385v-314h-384v-1260h256v-158h-1280zM128 1260v158h384v-158h-384zM256 788v157h384v-157h-384zM1280 158v157h384v-157h-384zM1664 315v157h256v-157 h-256zM1793 1575v157h127v-157h-127zM1920 472v1103h128v-1103h-128z" />
<glyph unicode="&#x201c;" horiz-adv-x="157" />
<glyph unicode="&#x202f;" horiz-adv-x="472" />
<glyph unicode="&#x205f;" horiz-adv-x="590" />
<glyph unicode="&#x25fc;" horiz-adv-x="1890" d="M0 0v1890h1890v-1890h-1890z" />
</font>
</defs>
</svg>
